<svg width="41" height="49" viewBox="0 0 41 49" fill="none" xmlns="http://www.w3.org/2000/svg">
<path d="M39.5839 37.9071C38.858 39.5841 37.9988 41.1277 37.0033 42.5469C35.6463 44.4817 34.5352 45.8209 33.6789 46.5646C32.3516 47.7853 30.9294 48.4105 29.4065 48.446C28.3132 48.446 26.9947 48.1349 25.4599 47.5038C23.9201 46.8757 22.5051 46.5646 21.2112 46.5646C19.8542 46.5646 18.3988 46.8757 16.8421 47.5038C15.2831 48.1349 14.0271 48.4638 13.0668 48.4964C11.6064 48.5586 10.1508 47.9157 8.69779 46.5646C7.77042 45.7557 6.61046 44.3691 5.22087 42.4047C3.72995 40.307 2.50422 37.8745 1.54395 35.1012C0.515539 32.1058 0 29.2051 0 26.3969C0 23.1801 0.695089 20.4057 2.08734 18.0807C3.18153 16.2132 4.63718 14.7401 6.45905 13.6586C8.28092 12.5772 10.2495 12.0261 12.3694 11.9908C13.5293 11.9908 15.0505 12.3496 16.9408 13.0548C18.8258 13.7623 20.0361 14.1211 20.5667 14.1211C20.9635 14.1211 22.308 13.7016 24.5874 12.8652C26.7428 12.0895 28.562 11.7683 30.0524 11.8948C34.0908 12.2207 37.1247 13.8127 39.1425 16.6807C35.5307 18.8691 33.7441 21.9342 33.7797 25.8662C33.8123 28.929 34.9233 31.4776 37.107 33.5013C38.0966 34.4405 39.2017 35.1664 40.4313 35.682C40.1646 36.4553 39.8832 37.196 39.5839 37.9071ZM30.322 1.46076C30.322 3.86131 29.445 6.1027 27.6969 8.1773C25.5873 10.6436 23.0357 12.0687 20.2687 11.8439C20.2334 11.5559 20.213 11.2528 20.213 10.9343C20.213 8.62973 21.2162 6.16343 22.9978 4.1469C23.8872 3.1259 25.0185 2.27694 26.3903 1.59972C27.7591 0.932598 29.0539 0.563666 30.2716 0.500488C30.3072 0.821404 30.322 1.14234 30.322 1.46073V1.46076Z" fill="white"/>
</svg>
