<svg width="48" height="49" viewBox="0 0 48 49" fill="none" xmlns="http://www.w3.org/2000/svg">
<path d="M47.532 25.0529C47.532 23.4214 47.3997 21.7811 47.1175 20.1761H24.48V29.4181H37.4434C36.9055 32.3988 35.177 35.0356 32.6461 36.7111V42.7078H40.3801C44.9217 38.5278 47.532 32.3547 47.532 25.0529Z" fill="#4285F4"/>
<path d="M24.48 48.5016C30.9529 48.5016 36.4116 46.3764 40.3888 42.7078L32.6549 36.7111C30.5031 38.175 27.7252 39.0039 24.4888 39.0039C18.2275 39.0039 12.9187 34.7798 11.0139 29.1006H3.03296V35.2825C7.10718 43.3868 15.4056 48.5016 24.48 48.5016Z" fill="#34A853"/>
<path d="M11.0051 29.1005C9.99973 26.1198 9.99973 22.8922 11.0051 19.9115V13.7296H3.03298C-0.371021 20.5112 -0.371021 28.5009 3.03298 35.2824L11.0051 29.1005Z" fill="#FBBC04"/>
<path d="M24.48 9.99932C27.9016 9.94641 31.2086 11.2339 33.6866 13.5973L40.5387 6.74523C36.2 2.67101 30.4414 0.431068 24.48 0.501617C15.4055 0.501617 7.10718 5.61644 3.03296 13.7296L11.005 19.9115C12.901 14.2235 18.2187 9.99932 24.48 9.99932Z" fill="#EA4335"/>
</svg>
